<?xml version="1.0" encoding="UTF-8" standalone="no"?>
<!-- Created with Inkscape (http://www.inkscape.org/) -->

<svg
   width="16.0px"
   height="16.0px"
   viewBox="0 0 16.0 16.0"
   version="1.1"
   id="SVGRoot"
   sodipodi:docname="icon.svg"
   inkscape:version="1.2.1 (9c6d41e410, 2022-07-14)"
   xmlns:inkscape="http://www.inkscape.org/namespaces/inkscape"
   xmlns:sodipodi="http://sodipodi.sourceforge.net/DTD/sodipodi-0.dtd"
   xmlns="http://www.w3.org/2000/svg"
   xmlns:svg="http://www.w3.org/2000/svg">
  <sodipodi:namedview
     id="namedview237"
     pagecolor="#ffffff"
     bordercolor="#000000"
     borderopacity="0.25"
     inkscape:showpageshadow="2"
     inkscape:pageopacity="0.0"
     inkscape:pagecheckerboard="0"
     inkscape:deskcolor="#d1d1d1"
     inkscape:document-units="px"
     showgrid="true"
     inkscape:zoom="4.0000001"
     inkscape:cx="-31.874999"
     inkscape:cy="-13"
     inkscape:window-width="1346"
     inkscape:window-height="661"
     inkscape:window-x="1932"
     inkscape:window-y="332"
     inkscape:window-maximized="0"
     inkscape:current-layer="layer1">
    <inkscape:grid
       type="xygrid"
       id="grid243" />
  </sodipodi:namedview>
  <defs
     id="defs232" />
  <g
     inkscape:label="Ebene 1"
     inkscape:groupmode="layer"
     id="layer1">
    <path
       d="m 8.1596759,1.4175537 c -2.9488661,0 -5.380781,1.8483978 -5.7365325,4.2368855 0.2612549,-0.088461 0.5447486,-0.1396798 0.8449137,-0.1396798 0.7365207,0 1.0215008,0.2051621 0.5750287,0.6263877 -1.3091675,1.2351385 -0.977239,3.1019837 -0.027915,3.8856959 0.9446114,0.779821 0.1894072,0.702544 -0.5471134,0.702544 -1.2284622,0 -2.2234626,-0.8334112 -2.2234626,-1.862367 V 8.4945473 7.3771253 6.2597071 c 0,-3.2917313 3.1851113,-5.95957163 7.1150814,-5.95957163 3.9299698,0 7.1150808,2.66784033 7.1150808,5.95957163 V 7.3771253 8.4945473 8.86702 c 0,1.0289558 -0.995,1.862367 -2.22346,1.862367 -0.736523,0 -1.346696,0.161582 -0.377654,-0.584244 1.452383,-1.1178296 0.426799,-3.1408265 -0.272352,-3.8398529 -0.434118,-0.4340422 -0.08652,-0.7905307 0.650002,-0.7905307 0.30017,0 0.583659,0.048891 0.844917,0.1396798 C 13.540453,3.2659515 11.108538,1.4175537 8.1596715,1.4175537 Z"
       id="path41"
       style="stroke-width:0.0254364;fill:#000000"
       sodipodi:nodetypes="scsssssccsssccssssscss" />
    <path
       d="m 8.8235065,8.0898249 c 0,1.4544181 -1.1787587,2.6331771 -2.6331772,2.6331771 -1.4544206,0 -2.6331774,-1.178759 -2.6331774,-2.6331771 0,-1.4544191 1.1787568,-2.6331757 2.6331774,-2.6331757 1.4544185,0 2.6331772,1.1787566 2.6331772,2.6331757 z M 1.5822686,15.378376 c 0,-2.026311 1.6416216,-3.667933 3.6679339,-3.667933 h 1.8802534 c 2.0263128,0 3.6679321,1.641622 3.6679321,3.667933 0,0.337378 -0.273602,0.610979 -0.610978,0.610979 H 2.1932476 c -0.3373757,0 -0.610979,-0.273601 -0.610979,-0.610979 z m 12.5343354,0.610979 h -2.836839 c 0.111095,-0.193374 0.176918,-0.417607 0.176918,-0.658294 v -0.164573 c 0,-1.248701 -0.557493,-2.369859 -1.435904,-3.122783 0.04937,-0.0021 0.09669,-0.0041 0.146058,-0.0041 h 1.263103 c 1.832938,0 3.318215,1.485274 3.318215,3.318214 0,0.34972 -0.283889,0.631551 -0.631551,0.631551 z m -3.647362,-5.266353 c -0.637724,0 -1.2137311,-0.259203 -1.6313358,-0.67681 C 9.2431674,9.4989869 9.481799,8.8221761 9.481799,8.0898249 c 0,-0.5513221 -0.1357724,-1.0717846 -0.376461,-1.5284768 0.382633,-0.279776 0.853725,-0.446406 1.363904,-0.446406 1.273386,0 2.30403,1.0306426 2.30403,2.3040292 0,1.2733889 -1.030644,2.3040307 -2.30403,2.3040307 z"
       id="path161"
       style="stroke-width:0.0205716;fill:#0f6cbf;" />
  </g>
</svg>
